<svg width="242" height="243" xmlns="http://www.w3.org/2000/svg" xmlns:xlink="http://www.w3.org/1999/xlink" xml:space="preserve" overflow="hidden"><defs><clipPath id="clip0"><rect x="2078" y="1117" width="242" height="243"/></clipPath></defs><g clip-path="url(#clip0)" transform="translate(-2078 -1117)"><path d="M117.002 234.544 166.09 185.283 235.774 242.123C237.147 243.501 239.55 243.157 240.923 241.779 242.296 240.401 242.296 238.334 241.266 236.611L184.627 167.024 233.714 117.763C232.512 107.715 198.929 118.337 177.418 106.739L104.645 48.176C90.5135 30.5497 109.908-6.4829 92.6305 0.980844L0.977371 92.9595C-6.45995 110.299 30.4416 90.8351 48.0054 105.016L106.361 178.048C117.861 199.636 107.048 233.338 117.002 234.544Z" fill="#119FFF" fill-rule="evenodd" transform="matrix(-1 0 0 1 2320 1117)"/></g></svg>