<svg width="693" height="692" xmlns="http://www.w3.org/2000/svg" xmlns:xlink="http://www.w3.org/1999/xlink" xml:space="preserve" overflow="hidden"><defs><clipPath id="clip0"><rect x="713" y="1176" width="693" height="692"/></clipPath></defs><g clip-path="url(#clip0)" transform="translate(-713 -1176)"><path d="M1055.1 1404.93C990.348 1404.93 937.86 1457.35 937.86 1522 937.86 1586.66 990.348 1639.07 1055.1 1639.07 1119.84 1639.07 1172.33 1586.66 1172.33 1522 1172.33 1457.35 1119.84 1404.93 1055.1 1404.93ZM1059.5 1176 1150.05 1257.32 1273.65 1242.08 1296.57 1358.42 1406 1415.08 1352.54 1522 1406 1628.92 1296.57 1685.58 1273.65 1801.92 1150.05 1786.68 1059.5 1868 968.945 1786.68 845.35 1801.92 822.426 1685.58 713 1628.92 766.462 1522 713 1415.08 822.426 1358.42 845.35 1242.08 968.945 1257.32Z" fill="#119FFF" fill-rule="evenodd"/></g></svg>